# xmcd
#
# Track frame offsets:
#	150
#	16267
#	31726
#	46230
#	65292
#	83977
#	101338
#	118873
#	133605
#	149342
#	164134
#	180073
#	196668
#	225661
#	241639
#	280145
#
# Disc length: 4182 seconds
#
# Revision: 0
# Processed by: cddbd v1.5.1PL2 Copyright (c) Steve Scherf et al.
# Submitted via: audiograbber 1.83.01
#
DISCID=c7105410
DTITLE=Románcok - Virágos kert
DYEAR=1900
DGENRE=Pop
TTITLE0=Virágoskert Az Én Szívem
TTITLE1=Ez A Dal
TTITLE2=Nem Múlt Minden El
TTITLE3=Hogy Tudnék Boldog Lenni
TTITLE4=Ahogy A Két Szemeddel Nézel
TTITLE5=Mennyit Érek Én
TTITLE6=Néha Gondolj Rám
TTITLE7=Szemembl Knycsepp Csordul
TTITLE8=Füledbe Súgnám
TTITLE9=Szerelmes Lettem
TTITLE10=Hiába Sírsz
TTITLE11=Mennyek Kapuján
TTITLE12=Románcok Megamix (Bonusz Track)
TTITLE13=Virágoskert Az Én Szívem (Karaoke Változat)
TTITLE14=Roma mix(élö)
TTITLE15=roma
EXTD=
EXTT0=
EXTT1=
EXTT2=
EXTT3=
EXTT4=
EXTT5=
EXTT6=
EXTT7=
EXTT8=
EXTT9=
EXTT10=
EXTT11=
EXTT12=
EXTT13=
EXTT14=
EXTT15=
PLAYORDER=
